<?xml version="1.0" encoding="UTF-8"?>
<svg width="24" height="24" viewBox="0 0 24 24" fill="none" xmlns="http://www.w3.org/2000/svg">
  <path d="M4 12H20M4 12V20C4 20.5523 4.44772 21 5 21H19C19.5523 21 20 20.5523 20 20V12M4 12V8C4 5.79086 5.79086 4 8 4H9M20 12V8C20 5.79086 18.2091 4 16 4H15M9 4C9 5.10457 9.89543 6 11 6C12.1046 6 13 5.10457 13 4M9 4C9 2.89543 9.89543 2 11 2C12.1046 2 13 2.89543 13 4M13 4H15" stroke="currentColor" stroke-width="1.5" stroke-linecap="round" stroke-linejoin="round"/>
</svg>
